# Blender v2.77 (sub 0) OBJ File: 'asteristico.blend'
# www.blender.org
o Cube
v 1.000000 0.000000 -1.000000
v 1.000000 0.000000 1.000000
v -1.000000 0.000000 1.000000
v -1.000000 0.000000 -1.000000
v 1.000000 2.000000 -0.999999
v 0.999999 2.000000 1.000001
v -1.000000 2.000000 1.000000
v -1.000000 2.000000 -1.000000
v 1.000000 4.000000 -0.999999
v 0.999999 4.000000 1.000001
v -1.000000 4.000000 -1.000000
v -1.000000 4.000000 1.000000
v 1.000000 6.000000 -0.999999
v 0.999999 6.000000 1.000001
v -1.000000 6.000000 -1.000000
v -1.000000 6.000000 1.000000
v -3.000000 2.000000 0.999999
v -3.000000 2.000000 -1.000000
v -3.000000 4.000000 0.999999
v -3.000000 4.000000 -1.000000
v 3.000000 2.000000 -0.999998
v 2.999999 2.000000 1.000002
v 3.000000 4.000000 -0.999998
v 2.999999 4.000000 1.000002
v 0.999998 2.000000 3.000000
v -1.000001 2.000000 3.000000
v 0.999998 4.000000 3.000000
v -1.000001 4.000000 3.000000
v 1.000001 2.000000 -3.000000
v -0.999999 2.000000 -3.000000
v 1.000001 4.000000 -3.000000
v -0.999999 4.000000 -3.000000
vt 0.5000 0.5000
vt 0.4167 0.4167
vt 0.5000 0.4167
vt 0.2500 0.3334
vt 0.1667 0.2500
vt 0.2500 0.2500
vt 0.6666 0.3334
vt 0.7500 0.4167
vt 0.6666 0.4167
vt 0.5000 0.5833
vt 0.4167 0.5000
vt 0.1667 0.4167
vt 0.2500 0.4167
vt 0.4167 0.3334
vt 0.5000 0.3334
vt 0.4167 0.0834
vt 0.5000 0.0001
vt 0.5000 0.0834
vt 0.4167 0.1667
vt 0.0834 0.2500
vt 0.0001 0.1667
vt 0.0834 0.1667
vt 0.5833 0.1667
vt 0.6666 0.2500
vt 0.5833 0.2500
vt 0.4167 0.9999
vt 0.5000 0.9166
vt 0.5000 0.9999
vt 0.5000 0.8333
vt 0.4167 0.9166
vt 0.4167 0.8333
vt 0.6666 0.0834
vt 0.7500 0.0001
vt 0.7500 0.0834
vt 0.1667 0.0834
vt 0.2500 0.0001
vt 0.2500 0.0834
vt 0.2500 0.1667
vt 0.3334 0.2500
vt 0.3334 0.1667
vt 0.1667 0.1667
vt 0.7500 0.1667
vt 0.7500 0.2500
vt 0.6666 0.1667
vt 0.7500 0.3334
vt 0.8333 0.2500
vt 0.8333 0.1667
vt 0.5000 0.6666
vt 0.4167 0.7500
vt 0.4167 0.6666
vt 0.5000 0.7500
vt 0.4167 0.5833
vt 0.9166 0.2500
vt 0.4167 0.2500
vt 0.5000 0.1667
vt 0.5000 0.2500
vt 0.1667 0.3334
vt 0.4167 0.0001
vt 0.0001 0.2500
vt 0.6666 0.0001
vt 0.1667 0.0001
vt 0.9166 0.1667
vn 0.0000 -1.0000 0.0000
vn 1.0000 -0.0000 0.0000
vn 0.0000 -0.0000 1.0000
vn -1.0000 -0.0000 -0.0000
vn 0.0000 0.0000 -1.0000
vn 0.0000 1.0000 -0.0000
s off
f 2/1/1 4/2/1 1/3/1
f 8/4/1 17/5/1 18/6/1
f 5/7/2 2/8/2 1/9/2
f 6/10/3 3/11/3 2/1/3
f 3/12/4 8/4/4 4/13/4
f 1/3/5 8/14/5 5/15/5
f 11/16/5 13/17/5 9/18/5
f 9/18/6 32/19/6 11/16/6
f 7/20/4 28/21/4 12/22/4
f 9/23/5 21/24/5 5/25/5
f 15/26/6 14/27/6 13/28/6
f 10/29/3 16/30/3 12/31/3
f 9/32/2 14/33/2 10/34/2
f 12/35/4 15/36/4 11/37/4
f 17/5/4 20/38/4 18/6/4
f 12/22/3 17/5/3 7/20/3
f 8/39/5 20/38/5 11/40/5
f 11/37/6 19/41/6 12/35/6
f 21/24/2 24/42/2 22/43/2
f 10/34/6 23/44/6 9/32/6
f 5/7/1 22/43/1 6/45/1
f 6/46/3 24/42/3 10/47/3
f 25/48/3 28/49/3 26/50/3
f 12/31/6 27/51/6 10/29/6
f 7/52/1 25/48/1 26/50/1
f 10/47/2 25/53/2 6/46/2
f 30/54/5 31/55/5 29/56/5
f 8/14/1 29/56/1 5/15/1
f 5/25/2 31/55/2 9/23/2
f 11/40/4 30/54/4 8/39/4
f 2/1/1 3/11/1 4/2/1
f 8/4/1 7/57/1 17/5/1
f 5/7/2 6/45/2 2/8/2
f 6/10/3 7/52/3 3/11/3
f 3/12/4 7/57/4 8/4/4
f 1/3/5 4/2/5 8/14/5
f 11/16/5 15/58/5 13/17/5
f 9/18/6 31/55/6 32/19/6
f 7/20/4 26/59/4 28/21/4
f 9/23/5 23/44/5 21/24/5
f 15/26/6 16/30/6 14/27/6
f 10/29/3 14/27/3 16/30/3
f 9/32/2 13/60/2 14/33/2
f 12/35/4 16/61/4 15/36/4
f 17/5/4 19/41/4 20/38/4
f 12/22/3 19/41/3 17/5/3
f 8/39/5 18/6/5 20/38/5
f 11/37/6 20/38/6 19/41/6
f 21/24/2 23/44/2 24/42/2
f 10/34/6 24/42/6 23/44/6
f 5/7/1 21/24/1 22/43/1
f 6/46/3 22/43/3 24/42/3
f 25/48/3 27/51/3 28/49/3
f 12/31/6 28/49/6 27/51/6
f 7/52/1 6/10/1 25/48/1
f 10/47/2 27/62/2 25/53/2
f 30/54/5 32/19/5 31/55/5
f 8/14/1 30/54/1 29/56/1
f 5/25/2 29/56/2 31/55/2
f 11/40/4 32/19/4 30/54/4
